<svg width="18" height="19" viewBox="0 0 18 19" fill="none" xmlns="http://www.w3.org/2000/svg">
<path d="M15.0363 9.32141L7.16135 17.7589C7.07789 17.848 6.96774 17.9075 6.8475 17.9284C6.72726 17.9494 6.60347 17.9307 6.4948 17.8751C6.38613 17.8196 6.29849 17.7302 6.24508 17.6204C6.19168 17.5107 6.17543 17.3865 6.19877 17.2667L7.22955 12.1107L3.17744 10.5891C3.09042 10.5566 3.01281 10.503 2.95156 10.4331C2.8903 10.3633 2.84731 10.2793 2.82642 10.1888C2.80552 10.0982 2.80738 10.0039 2.83183 9.9143C2.85627 9.82466 2.90254 9.74247 2.9665 9.67508L10.8415 1.23758C10.925 1.14852 11.0351 1.08902 11.1553 1.06805C11.2756 1.04709 11.3994 1.0658 11.508 1.12137C11.6167 1.17693 11.7044 1.26633 11.7578 1.37608C11.8112 1.48583 11.8274 1.60997 11.8041 1.72977L10.7705 6.89141L14.8226 8.41086C14.909 8.44363 14.986 8.49717 15.0467 8.56676C15.1075 8.63635 15.1502 8.71983 15.1711 8.80984C15.1919 8.89985 15.1903 8.9936 15.1663 9.08283C15.1423 9.17205 15.0967 9.25399 15.0335 9.32141H15.0363Z" fill="#1387F2"/>
</svg>
