<svg width="18" height="18" viewBox="0 0 18 18" fill="none" xmlns="http://www.w3.org/2000/svg">
<rect x="0.5" y="0.5" width="17" height="17" rx="5" fill="#73B8F7"/>
<rect x="0.5" y="0.5" width="17" height="17" rx="5" stroke="#73B8F7"/>
<path d="M14.7061 4.87711C14.7798 4.95065 14.8383 5.03801 14.8782 5.13419C14.9182 5.23037 14.9387 5.33348 14.9387 5.43761C14.9387 5.54174 14.9182 5.64485 14.8782 5.74103C14.8383 5.83721 14.7798 5.92457 14.7061 5.99811L7.58111 13.1231C7.50757 13.1968 7.42021 13.2553 7.32403 13.2952C7.22785 13.3352 7.12474 13.3557 7.02061 13.3557C6.91648 13.3557 6.81337 13.3352 6.71719 13.2952C6.62101 13.2553 6.53365 13.1968 6.46011 13.1231L3.29345 9.95645C3.14479 9.80779 3.06128 9.60617 3.06128 9.39595C3.06128 9.18572 3.14479 8.9841 3.29345 8.83545C3.4421 8.68679 3.64372 8.60328 3.85395 8.60328C4.06417 8.60328 4.26579 8.68679 4.41445 8.83545L7.02061 11.4432L13.5851 4.87711C13.6587 4.80339 13.746 4.7449 13.8422 4.70498C13.9384 4.66507 14.0415 4.64453 14.1456 4.64453C14.2497 4.64453 14.3529 4.66507 14.449 4.70498C14.5452 4.7449 14.6326 4.80339 14.7061 4.87711Z" fill="white"/>
</svg>
