<svg width="12" height="12" viewBox="0 0 12 12" fill="none" xmlns="http://www.w3.org/2000/svg">
<path d="M1.5 0C1.10218 0 0.720644 0.158035 0.43934 0.43934C0.158035 0.720644 0 1.10218 0 1.5V3.5C0 3.89782 0.158035 4.27936 0.43934 4.56066C0.720644 4.84196 1.10218 5 1.5 5H3.5C3.89782 5 4.27936 4.84196 4.56066 4.56066C4.84196 4.27936 5 3.89782 5 3.5V1.5C5 1.10218 4.84196 0.720644 4.56066 0.43934C4.27936 0.158035 3.89782 0 3.5 0H1.5ZM1.5 7C1.10218 7 0.720644 7.15804 0.43934 7.43934C0.158035 7.72064 0 8.10218 0 8.5V10.5C0 10.8978 0.158035 11.2794 0.43934 11.5607C0.720644 11.842 1.10218 12 1.5 12H3.5C3.89782 12 4.27936 11.842 4.56066 11.5607C4.84196 11.2794 5 10.8978 5 10.5V8.5C5 8.10218 4.84196 7.72064 4.56066 7.43934C4.27936 7.15804 3.89782 7 3.5 7H1.5ZM7 1.5C7 1.10218 7.15804 0.720644 7.43934 0.43934C7.72064 0.158035 8.10218 0 8.5 0H10.5C10.8978 0 11.2794 0.158035 11.5607 0.43934C11.842 0.720644 12 1.10218 12 1.5V3.5C12 3.89782 11.842 4.27936 11.5607 4.56066C11.2794 4.84196 10.8978 5 10.5 5H8.5C8.10218 5 7.72064 4.84196 7.43934 4.56066C7.15804 4.27936 7 3.89782 7 3.5V1.5ZM8.5 7C8.10218 7 7.72064 7.15804 7.43934 7.43934C7.15804 7.72064 7 8.10218 7 8.5V10.5C7 10.8978 7.15804 11.2794 7.43934 11.5607C7.72064 11.842 8.10218 12 8.5 12H10.5C10.8978 12 11.2794 11.842 11.5607 11.5607C11.842 11.2794 12 10.8978 12 10.5V8.5C12 8.10218 11.842 7.72064 11.5607 7.43934C11.2794 7.15804 10.8978 7 10.5 7H8.5Z" fill="white"/>
</svg>
