<svg width="15" height="15" viewBox="0 0 15 15" fill="none" xmlns="http://www.w3.org/2000/svg">
<rect width="15" height="15" rx="7.5" fill="#E65F57"/>
<path d="M10.8974 10.4022C10.93 10.4347 10.9557 10.4733 10.9733 10.5158C10.9909 10.5583 11 10.6038 11 10.6498C11 10.6958 10.9909 10.7413 10.9733 10.7838C10.9557 10.8263 10.93 10.8649 10.8974 10.8974C10.8649 10.93 10.8263 10.9557 10.7838 10.9733C10.7413 10.9909 10.6958 11 10.6498 11C10.6038 11 10.5583 10.9909 10.5158 10.9733C10.4733 10.9557 10.4347 10.93 10.4022 10.8974L7.5 7.99478L4.59779 10.8974C4.53212 10.9631 4.44305 11 4.35018 11C4.2573 11 4.16823 10.9631 4.10256 10.8974C4.03689 10.8318 4 10.7427 4 10.6498C4 10.557 4.03689 10.4679 4.10256 10.4022L7.00521 7.5L4.10256 4.59779C4.03689 4.53212 4 4.44305 4 4.35018C4 4.2573 4.03689 4.16823 4.10256 4.10256C4.16823 4.03689 4.2573 4 4.35018 4C4.44305 4 4.53212 4.03689 4.59779 4.10256L7.5 7.00521L10.4022 4.10256C10.4679 4.03689 10.557 4 10.6498 4C10.7427 4 10.8318 4.03689 10.8974 4.10256C10.9631 4.16823 11 4.2573 11 4.35018C11 4.44305 10.9631 4.53212 10.8974 4.59779L7.99478 7.5L10.8974 10.4022Z" fill="white"/>
</svg>
